<?xml version="1.0" encoding="UTF-8"?>
<!-- Created with Inkscape (http://www.inkscape.org/) -->
<svg width="166.09mm" height="123.87mm" version="1.1" viewBox="0 0 627.74369 468.1828" xml:space="preserve" xmlns="http://www.w3.org/2000/svg" xmlns:cc="http://creativecommons.org/ns#" xmlns:dc="http://purl.org/dc/elements/1.1/" xmlns:rdf="http://www.w3.org/1999/02/22-rdf-syntax-ns#"><metadata><rdf:RDF><cc:Work rdf:about=""><dc:format>image/svg+xml</dc:format><dc:type rdf:resource="http://purl.org/dc/dcmitype/StillImage"/><dc:title/></cc:Work></rdf:RDF></metadata><defs><clipPath id="clipPath18"><path d="m0 768h1366v-768h-1366z"/></clipPath><clipPath id="clipPath30"><path d="m0 768h1366v-768h-1366z"/></clipPath><clipPath id="clipPath42"><path d="m0 768h1366v-768h-1366z"/></clipPath><clipPath id="clipPath54"><path d="m0 768h1366v-768h-1366z"/></clipPath></defs><g transform="matrix(1.3333 0 0 -1.3333 -514.92 868.76)"><g clip-path="url(#clipPath18)"><g transform="translate(620.3 477.66)"><path d="m0 0c-13.89 50.046-42.01 86.744-87.167 109.66-33.855 17.177-69.752 20.976-106.78 12.886-6.834-1.493-10.526-0.182-14.063 5.795-7.513 12.695-15.637 25.046-23.837 37.324-4.089 6.124-2.623 8.214 4.411 7.564 0.719-0.066 1.451-8e-3 2.176-8e-3l455.08-3e-3h6.879c-8.238-12.864-16.57-23.978-22.811-36.144-6.493-12.654-14.033-15.709-28.778-13.248-83.471 13.936-161.68-37.417-182.76-118.47-0.341-1.311-1.091-2.518-2.351-5.348"/></g></g><g clip-path="url(#clipPath30)"><g transform="translate(679.7 475.32)"><path d="m0 0c0.157 32.057 26.602 57.533 59.42 57.244 32.031-0.283 58.233-26.11 58.325-57.491 0.094-31.88-26.514-57.853-59.122-57.712-32.93 0.143-58.782 25.702-58.623 57.959"/></g></g><g clip-path="url(#clipPath42)"><g transform="translate(560.56 474.86)"><path d="m0 0c2e-3 -32.179-26.194-57.671-59.064-57.476-32.271 0.191-58.384 25.584-58.699 57.079-0.317 31.645 26.366 58 58.841 58.119 32.707 0.119 58.92-25.559 58.922-57.722"/></g></g><g clip-path="url(#clipPath54)"><g transform="translate(620.03 387.71)"><path d="m0 0c7.031-14.573 17.322-25.634 28.679-35.821 2.714-2.434 5.725-4.183 2.399-8.653-10.304-13.844-20.245-27.954-30.935-42.805-10.795 14.945-20.798 29.011-31.065 42.886-3.34 4.513 0.035 6.252 2.666 8.671 11.16 10.264 21.664 21.064 28.256 35.722"/></g></g></g></svg>
