<?xml version="1.0" encoding="UTF-8"?>
<!-- Created with Inkscape (http://www.inkscape.org/) -->
<svg width="2462.6" height="2163.2" version="1.1" viewBox="0 0 651.56292 572.34809" xmlns="http://www.w3.org/2000/svg" xmlns:cc="http://creativecommons.org/ns#" xmlns:dc="http://purl.org/dc/elements/1.1/" xmlns:rdf="http://www.w3.org/1999/02/22-rdf-syntax-ns#" xmlns:xlink="http://www.w3.org/1999/xlink">
     <defs>
          <clipPath id="clipPath18-7">
               <path d="m0 768h1366v-768h-1366z"/>
          </clipPath>
          <clipPath id="clipPath30-9">
               <path d="m0 768h1366v-768h-1366z"/>
          </clipPath>
          <clipPath id="clipPath42-4">
               <path d="m0 768h1366v-768h-1366z"/>
          </clipPath>
          <clipPath id="clipPath54-1">
               <path d="m0 768h1366v-768h-1366z"/>
          </clipPath>
          <clipPath id="b">
               <use width="100%" height="100%" overflow="visible" xlink:href="#a"/>
          </clipPath>
          <clipPath id="b-4">
               <use width="100%" height="100%" overflow="visible" xlink:href="#a"/>
          </clipPath>
          <path id="a" d="m98.1 244.8c1.6 7.5 5.5 11.9 9.4 14.5h41.1c5-3.4 10.1-9.8 10.1-21.8v-31s0.6-7.7 7.7-10.2c0 0 4.1-2.9-0.3-4.5 0 0-19.5-1.6-19.5 14.4v23.6s0.8 8.7-3.8 12.3v-29.2s0.3-9.3 5.1-12.8c0 0 3.2-5.7-3.8-4.2 0 0-13.4 1.9-14 17.6l-0.3 30h-3.2l-0.3-30c-0.6-15.6-14-17.6-14-17.6-7-1.6-3.8 4.2-3.8 4.2 4.8 3.5 5.1 12.8 5.1 12.8v29.5c-4.6-3.3-3.8-12.6-3.8-12.6v-23.6c0-16-19.5-14.4-19.5-14.4-4.5 1.6-0.3 4.5-0.3 4.5 7 2.6 7.7 10.2 7.7 10.2v21.7z"/>
     </defs>
     <metadata>
          <rdf:RDF>
               <cc:Work rdf:about="">
                    <dc:format>image/svg+xml</dc:format>
                    <dc:type rdf:resource="http://purl.org/dc/dcmitype/StillImage"/>
                    <dc:title/>
               </cc:Work>
          </rdf:RDF>
     </metadata>
     <g transform="translate(364.34 220.49)">
          <g transform="matrix(2.5445 0 0 2.5445 -364.26 -220.5)">
               <g>
                    <path d="m200.9 199.8c0 13.9-32.2 25.1-71.9 25.1s-71.9-11.3-71.9-25.1c0-13.9 32.2-25.1 71.9-25.1s71.9 11.2 71.9 25.1z" fill="#004e58"/>
                    <path d="m46.9 125.9-2.1 7.2s-0.5 2.6 1.9 3.1c2.6-0.1 2.4-2.5 2.2-3.2z" fill="#004e58"/>
                    <path d="m255.8 95.6 0.2-0.9c-21.1-4.2-42.7-4.3-55.8-3.7 2.1-7.7 2.8-16.7 2.8-26.6 0-14.3-5.4-25.7-14-34.3 1.5-4.9 3.5-15.8-2-29.7 0 0-9.8-3.1-32.1 11.8-8.7-2.2-18-3.3-27.3-3.3-10.2 0-20.5 1.3-30.2 3.9-23-15.7-33.1-12.5-33.1-12.5-6.6 16.5-2.5 28.8-1.3 31.8-7.8 8.4-12.5 19.1-12.5 32.2 0 9.9 1.1 18.8 3.9 26.5-13.2-0.5-34-0.3-54.4 3.8l0.2 0.9c20.4-4.1 41.4-4.2 54.5-3.7 0.6 1.6 1.3 3.2 2 4.7-13 0.4-35.1 2.1-56.3 8.1l0.3 0.9c21.4-6 43.7-7.6 56.6-8 7.8 14.4 23 23.8 50.2 26.7-3.9 2.6-7.8 7-9.4 14.5-5.3 2.5-21.9 8.7-31.9-8.5 0 0-5.6-10.2-16.3-11 0 0-10.4-0.2-0.7 6.5 0 0 6.9 3.3 11.7 15.6 0 0 6.3 21 36.4 14.2v21.5s-0.6 7.7-7.7 10.2c0 0-4.2 2.9 0.3 4.5 0 0 19.5 1.6 19.5-14.4v-23.6s-0.8-9.4 3.8-12.6v38.8s-0.3 9.3-5.1 12.8c0 0-3.2 5.7 3.8 4.2 0 0 13.4-1.9 14-17.6l0.3-39.3h3.2l0.3 39.3c0.6 15.6 14 17.6 14 17.6 7 1.6 3.8-4.2 3.8-4.2-4.8-3.5-5.1-12.8-5.1-12.8v-38.5c4.6 3.6 3.8 12.3 3.8 12.3v23.6c0 16 19.5 14.4 19.5 14.4 4.5-1.6 0.3-4.5 0.3-4.5-7-2.6-7.7-10.2-7.7-10.2v-31c0-12.1-5.1-18.5-10.1-21.8 29-2.9 42.9-12.2 49.3-26.8 12.7 0.3 35.6 1.9 57.4 8.1l0.3-0.9c-21.7-6.1-44.4-7.7-57.3-8.1 0.6-1.5 1.1-3 1.6-4.6 13.4-0.5 35.1-0.5 56.3 3.7z" fill="#00bfd7"/>
               </g>
               <path d="m174.6 63.492c6.2 5.7 9.9 12.5 9.9 19.8 0 34.4-25.6 35.3-57.2 35.3s-57.2-4.8-57.2-35.3c0-7.3 3.6-14.1 9.8-19.7 10.3-9.4 27.7-4.4 47.4-4.4s37-5.1 47.3 4.3z" fill="#fff"/>
               <path d="m54.5 121.6c0 0.8-0.9 1.4-2.1 1.4-1.1 0-2.1-0.6-2.1-1.4s0.9-1.4 2.1-1.4 2.1 0.6 2.1 1.4zm5.8 3.2c0 0.8-0.9 1.4-2.1 1.4-1.1 0-2.1-0.6-2.1-1.4s0.9-1.4 2.1-1.4 2.1 0.6 2.1 1.4zm3.5 4.2c0 0.8-0.9 1.4-2.1 1.4-1.1 0-2.1-0.6-2.1-1.4s0.9-1.4 2.1-1.4c1.2-0.1 2.1 0.6 2.1 1.4zm3.2 4.8c0 0.8-0.9 1.4-2.1 1.4-1.1 0-2.1-0.6-2.1-1.4s0.9-1.4 2.1-1.4c1.2-0.1 2.1 0.6 2.1 1.4zm3.5 4.4c0 0.8-0.9 1.4-2.1 1.4-1.1 0-2.1-0.6-2.1-1.4s0.9-1.4 2.1-1.4 2.1 0.6 2.1 1.4zm4.8 3.9c0 0.8-0.9 1.4-2.1 1.4-1.1 0-2.1-0.6-2.1-1.4s0.9-1.4 2.1-1.4c1.2-0.1 2.1 0.6 2.1 1.4zm6.7 2.5c0 0.8-0.9 1.4-2.1 1.4-1.1 0-2.1-0.6-2.1-1.4s0.9-1.4 2.1-1.4 2.1 0.6 2.1 1.4zm6.7 0c0 0.8-0.9 1.4-2.1 1.4-1.1 0-2.1-0.6-2.1-1.4s0.9-1.4 2.1-1.4 2.1 0.6 2.1 1.4zm6.8-1.1c0 0.8-0.9 1.4-2.1 1.4-1.1 0-2.1-0.6-2.1-1.4s0.9-1.4 2.1-1.4c1.1 0 2.1 0.6 2.1 1.4z" fill="#fff"/>
               <g transform="matrix(.13863 0 0 -.13863 237.27 29.408)" fill="#00bfd7">
                    <g clip-path="url(#clipPath18-7)"></g>
                    <g clip-path="url(#clipPath30-9)"></g>
                    <g transform="matrix(1.6857 0 0 1.4498 -1837.9 -1080.6)" clip-path="url(#clipPath42-4)">
                         <g transform="translate(560.56,474.86)">
                              <path d="m0 0c2e-3 -32.179-26.194-57.671-59.064-57.476-32.271 0.191-58.384 25.584-58.699 57.079-0.317 31.645 26.366 58 58.841 58.119 32.707 0.119 58.92-25.559 58.922-57.722m122.08 0c-2e-3 -32.179 26.194-57.671 59.064-57.476 32.271 0.191 58.384 25.584 58.699 57.079 0.317 31.645-26.366 58-58.841 58.119-32.707 0.119-58.92-25.559-58.922-57.722" fill="#004e58"/>
                              <path d="m61.038-172.44v82.21c-0.53748 1.0109-1.0627 2.0346-1.5674 3.0807-6.592-14.658-17.097-25.458-28.257-35.722-2.631-2.419-6.0047-4.1579-2.6647-8.6709 10.267-13.875 20.269-27.941 31.064-42.886 0.4879 0.67781 0.94047 1.3131 1.4254 1.9879zv82.21c0.53748 1.0109 1.0627 2.0346 1.5674 3.0807 6.592-14.658 17.097-25.458 28.257-35.722 2.631-2.419 6.0047-4.1579 2.6647-8.6709-10.267-13.875-20.269-27.941-31.064-42.886-0.4879 0.67781-0.94047 1.3131-1.4254 1.9879z" fill="#00bfd7"/>
                              <path d="m61.038 5.5899v170.43l-226.56 1e-3c-0.72498 0-1.4579-0.0587-2.1769 7e-3 -7.034 0.65-8.4998-1.4394-4.4108-7.5634 8.2-12.278 16.324-24.63 23.837-37.325 3.537-5.977 7.2293-7.2882 14.063-5.7952 37.028 8.09 72.925 4.2916 106.78-12.885 45.155-22.914 73.275-59.609 87.166-109.65 0.526 1.1814 0.94377 2.0405 1.2994 2.7819zv170.43l226.56 1e-3c0.72498 0 1.4579-0.0587 2.1769 7e-3 7.034 0.65 8.4998-1.4394 4.4108-7.5634-8.2-12.278-16.324-24.63-23.837-37.325-3.537-5.977-7.2293-7.2882-14.063-5.7952-37.028 8.09-72.924 4.2916-106.78-12.885-45.155-22.914-73.275-59.609-87.166-109.65-0.526 1.1814-0.94377 2.0405-1.2994 2.7819z" fill="#00bfd7"/>
                         </g>
                    </g>
                    <g clip-path="url(#clipPath54-1)"></g>
               </g>
          </g>
          <path transform="matrix(2.5445 0 0 2.5445 -364.34 -220.49)" d="m200.9 199.8c0 13.9-32.2 25.1-71.9 25.1s-71.9-11.3-71.9-25.1c0-13.9 32.2-25.1 71.9-25.1s71.9 11.2 71.9 25.1z" clip-path="url(#b)" fill="#7dbce7" fill-opacity=".13333"/>
          <path transform="matrix(2.5445 0 0 2.5445 -364.34 -220.49)" d="m200.9 199.8c0 13.9-32.2 25.1-71.9 25.1s-71.9-11.3-71.9-25.1c0-13.9 32.2-25.1 71.9-25.1s71.9 11.2 71.9 25.1z" clip-path="url(#b-4)" opacity="0"/>
     </g>
</svg>
