<svg xmlns="http://www.w3.org/2000/svg" viewBox="0 0 647.06 404.13"><defs><style>.cls-1{fill:#c4c5ca;}.cls-1,.cls-2,.cls-3,.cls-4,.cls-5{stroke:#000;}.cls-1,.cls-2,.cls-3{stroke-linecap:round;stroke-linejoin:round;}.cls-1,.cls-2,.cls-3,.cls-4{stroke-width:7px;}.cls-2{fill:#28bfd4;}.cls-3{fill:#e86a1f;}.cls-4,.cls-6{fill:#fff;}.cls-4,.cls-5{stroke-miterlimit:10;}</style></defs><title>owl</title><g id="Capa_2" data-name="Capa 2"><g id="face"><path class="cls-1" d="M80.76,61.74h486.7s74.74,142.43,70.78,268.35c0,0-288.28,159-623.09-.41C15.15,329.68,15,218.65,80.76,61.74Z"/></g><g id="head"><path class="cls-2" d="M3.5,3.5H643.56l-39.7,93.43S412.77,6.45,323.51,182.24c0,0-65.32-173.07-278.91-84.41Z"/></g><g id="beak"><polygon class="cls-3" points="325.37 336.84 286.37 278.42 325.37 223.93 365.37 278.42 325.37 336.84"/></g><g id="eyes"><ellipse class="cls-4" cx="182.58" cy="204.97" rx="86.64" ry="81.79"/><ellipse class="cls-5" cx="192.19" cy="202.71" rx="38.82" ry="36.43"/><ellipse class="cls-6" cx="175.24" cy="193.01" rx="9.2" ry="8.14"/><ellipse class="cls-6" cx="174.01" cy="210.74" rx="2.89" ry="2.77"/><ellipse class="cls-4" cx="465.57" cy="204.97" rx="86.64" ry="81.79"/><ellipse class="cls-5" cx="455.96" cy="202.71" rx="38.82" ry="36.43"/><ellipse class="cls-6" cx="472.92" cy="193.01" rx="9.2" ry="8.14"/><ellipse class="cls-6" cx="474.14" cy="210.74" rx="2.89" ry="2.77"/></g><g id="eyebrowns"><path class="cls-5" d="M141.77,120.54s46.18-56.77,89.44,4.7C231.21,125.24,192.05,93.44,141.77,120.54Z"/><path class="cls-5" d="M505.74,120.54s-47.18-55.77-90.44,5.7C415.3,126.24,455.46,93.44,505.74,120.54Z"/></g></g></svg>