<svg xmlns="http://www.w3.org/2000/svg" viewBox="0 0 640.48 395.14"><defs><style>.cls-1{fill:#c4c5ca;}.cls-1,.cls-2,.cls-3,.cls-4{stroke:#000;}.cls-1,.cls-2,.cls-3{stroke-linecap:round;stroke-linejoin:round;stroke-width:7px;}.cls-2{fill:#28bfd4;}.cls-3{fill:#e86a1f;}.cls-4{stroke-miterlimit:10;}</style></defs><title>owl2</title><g id="Capa_2" data-name="Capa 2"><g id="owl2"><g id="Capa_7" data-name="Capa 7"><path class="cls-1" d="M80,60.43H561.66s74,139.2,70.05,262.27c0,0-285.32,155.39-616.68-.4C15,322.3,14.91,213.78,80,60.43Z"/><path class="cls-2" d="M3.5,3.5H637l-39.3,91.31S408.57,6.39,320.22,178.2c0,0-64.65-169.16-276-82.51Z"/><polygon class="cls-3" points="322.06 329.3 283.46 272.2 322.06 218.94 361.65 272.2 322.06 329.3"/></g><g id="Capa_3" data-name="Capa 3"><path class="cls-2" d="M3.5,3.5H637l-39.3,91.31S408.57,6.39,320.22,178.2c0,0-64.65-169.16-276-82.51Z"/><polygon class="cls-3" points="322.06 329.3 283.46 272.2 322.06 218.94 361.65 272.2 322.06 329.3"/><path class="cls-4" d="M140.35,117.89s45.71-55.48,88.52,4.6C228.87,122.49,190.11,91.41,140.35,117.89Z"/><path class="cls-4" d="M500.57,117.89s-46.69-54.51-89.5,5.58C411.07,123.47,450.81,91.41,500.57,117.89Z"/></g><path d="M111.29,225s31.59-65.68,84-54.78c21.46,4.47,38.6,17.26,56.86,69.16,0,0-3.57-80.37-65.05-84.87C164.32,152.84,130.65,168.56,111.29,225Z"/><path d="M530.73,225s-31.59-65.68-84-54.78c-21.47,4.47-38.61,17.26-56.86,69.16,0,0,3.57-80.37,65-84.87C477.7,152.84,511.37,168.56,530.73,225Z"/></g></g></svg>