<svg xmlns="http://www.w3.org/2000/svg" viewBox="0 0 640.48 395.14"><defs><style>.cls-1{fill:#c4c5ca;}.cls-1,.cls-2,.cls-3,.cls-4,.cls-5,.cls-6{stroke:#000;}.cls-1,.cls-2,.cls-3,.cls-5{stroke-linecap:round;}.cls-1,.cls-2,.cls-3{stroke-linejoin:round;stroke-width:7px;}.cls-2{fill:#28bfd4;}.cls-3{fill:#e86a1f;}.cls-4,.cls-7{fill:#fff;}.cls-4,.cls-5,.cls-6{stroke-miterlimit:10;}.cls-4,.cls-6{stroke-width:6px;}.cls-5{fill:none;stroke-width:4px;}</style></defs><title>owl4</title><g id="Capa_2" data-name="Capa 2"><g id="owl4"><path class="cls-1" d="M80,60.43H561.66s74,139.2,70.05,262.27c0,0-285.32,155.39-616.68-.4C15,322.3,14.91,213.78,80,60.43Z"/><path class="cls-2" d="M3.5,3.5H637l-39.3,91.31S408.57,6.39,320.22,178.2c0,0-64.65-169.16-276-82.51Z"/><polygon class="cls-3" points="322.06 329.3 283.46 272.2 322.06 218.94 361.65 272.2 322.06 329.3"/><ellipse class="cls-4" cx="430.8" cy="178.93" rx="84.48" ry="62.44"/><path id="a" class="cls-1" d="M346.45,171.94S454,164.4,513.62,194.56c0,0,4.57,2,3.87,1.72-1.23-.54-4.39-2.65-4.29-3.17,2.34-11.66,10.92-61.52-69.34-76.4C443.86,116.71,363.47,107.58,346.45,171.94Z"/><path class="cls-5" d="M357.33,210.34S379.7,248.65,412,246"/><path class="cls-6" d="M390.79,171.22s2.94,11.29,12.76,11.18,15.26-3.39,17.18-9.59C420.73,172.81,404.13,171.21,390.79,171.22Z"/><ellipse class="cls-7" cx="402.36" cy="176.49" rx="4.46" ry="2.88"/><ellipse class="cls-4" cx="207.07" cy="182.87" rx="84.48" ry="62.44"/><path id="a-2" data-name="a" class="cls-1" d="M291.42,175.88s-107.59-7.54-167.17,22.63c0,0-4.56,2-3.87,1.71,1.24-.53,4.4-2.64,4.29-3.16-2.34-11.66-10.92-61.52,69.34-76.41C194,120.65,274.4,111.52,291.42,175.88Z"/><path class="cls-5" d="M280.54,214.28s-22.36,38.32-54.68,35.66"/><path class="cls-6" d="M247.08,175.17s-2.93,11.29-12.76,11.17-15.25-3.38-17.17-9.59C217.15,176.75,233.74,175.15,247.08,175.17Z"/><ellipse class="cls-7" cx="235.51" cy="180.43" rx="4.46" ry="2.88"/></g></g></svg>