<svg xmlns="http://www.w3.org/2000/svg" viewBox="0 0 640.48 395.14"><defs><style>.cls-1{fill:#c4c5ca;}.cls-1,.cls-2,.cls-3,.cls-4,.cls-5,.cls-7{stroke:#000;}.cls-1,.cls-2,.cls-3,.cls-7{stroke-linecap:round;stroke-linejoin:round;}.cls-1,.cls-2,.cls-3{stroke-width:7px;}.cls-2{fill:#28bfd4;}.cls-3{fill:#e86a1f;}.cls-4,.cls-6{fill:#fff;}.cls-4,.cls-5{stroke-miterlimit:10;stroke-width:6px;}.cls-7{stroke-width:4px;}</style></defs><title>owl5</title><g id="Capa_2" data-name="Capa 2"><g id="owl5"><path class="cls-1" d="M80,60.43H561.66s74,139.2,70.05,262.27c0,0-285.32,155.39-616.68-.4C15,322.3,14.91,213.78,80,60.43Z"/><path class="cls-2" d="M3.5,3.5H637l-39.3,91.31S408.57,6.39,320.22,178.2c0,0-64.65-169.16-276-82.51Z"/><polygon class="cls-3" points="322.06 329.3 283.46 272.2 322.06 218.94 361.65 272.2 322.06 329.3"/><path class="cls-4" d="M328.25,190.29c0,41.39,45.38,74.93,101.37,74.93S531,231.68,531,190.29a57.53,57.53,0,0,0-5.8-25c-26.75-3.22-68.91-14.22-130-45.48C356.16,130.21,328.25,157.84,328.25,190.29Z"/><path class="cls-5" d="M381.61,181.05s3.52,13.55,15.31,13.41,18.3-4.06,20.61-11.51C417.53,183,397.62,181,381.61,181.05Z"/><ellipse class="cls-6" cx="395.49" cy="187.36" rx="5.35" ry="3.46"/><path class="cls-1" d="M329.4,181.9s129.11-9.05,200.6,27.16l4.48,2c-1.58-.74-5.1-3.11-5-3.71,1.34-6.67,4.37-23.74-3.24-41.72-26.62-2.94-69.21-13.7-131.5-45.59C368.29,127,339.52,143.65,329.4,181.9Z"/><path class="cls-1" d="M534.48,211l.17.08C534.82,211.18,534.72,211.14,534.48,211Z"/><path class="cls-7" d="M373.71,108.05l47.6-4.6s95.8,58.7,140.8,60C562.11,163.45,510,183,373.71,108.05Z"/><path class="cls-4" d="M314.26,190.29c0,41.39-45.39,74.93-101.37,74.93s-101.38-33.54-101.38-74.93a57.53,57.53,0,0,1,5.8-25c26.74-3.22,68.91-14.22,130-45.48C286.35,130.21,314.26,157.84,314.26,190.29Z"/><path class="cls-5" d="M260.9,181.05s-3.52,13.55-15.31,13.41S227.28,190.4,225,183C225,183,244.89,181,260.9,181.05Z"/><ellipse class="cls-6" cx="247.02" cy="187.36" rx="5.35" ry="3.46"/><path class="cls-1" d="M313.1,181.9S184,172.85,112.5,209.06L108,211c1.59-.74,5.11-3.11,5-3.71-1.34-6.67-4.37-23.74,3.23-41.72,26.63-2.94,69.22-13.7,131.51-45.59C274.22,127,303,143.65,313.1,181.9Z"/><path class="cls-1" d="M108,211l-.16.08C107.69,211.18,107.78,211.14,108,211Z"/><path class="cls-7" d="M80.4,163.45c45-1.3,140.8-60,140.8-60l47.6,4.6C132.5,183,80.4,163.45,80.4,163.45Z"/></g></g></svg>