<svg xmlns="http://www.w3.org/2000/svg" viewBox="0 0 587.45 694.81"><defs><style>.cls-1{fill:#c3c4c9;}.cls-1,.cls-10,.cls-2,.cls-3,.cls-4,.cls-5,.cls-6,.cls-7,.cls-8,.cls-9{stroke:#000;}.cls-1,.cls-10,.cls-5,.cls-8,.cls-9{stroke-miterlimit:10;}.cls-1,.cls-5,.cls-6,.cls-7{stroke-width:7px;}.cls-2,.cls-7{fill:#e86a1f;}.cls-2,.cls-3,.cls-4,.cls-6,.cls-7{stroke-linecap:round;stroke-linejoin:round;}.cls-2,.cls-4,.cls-9{stroke-width:5px;}.cls-10,.cls-3,.cls-4,.cls-9{fill:none;}.cls-10,.cls-3{stroke-width:3px;}.cls-5{fill:#fff;}.cls-6{fill:#28bfd4;}</style></defs><title>owl6</title><g id="Capa_2" data-name="Capa 2"><g id="owl6"><path class="cls-1" d="M584,421.06c-2.63,50.55-30.25,129.5-66,129.5s-52.78-53.73-52.78-120S498.19,304.27,534,304.27,584,354.77,584,421.06Z"/><path class="cls-1" d="M5.86,423.35c2.63,50.55,30.24,129.5,66,129.5s52.78-53.73,52.78-120-33-126.27-68.82-126.27S5.86,357.06,5.86,423.35Z"/><path class="cls-2" d="M192.91,590.09l-2.13,51.76a2.17,2.17,0,0,1-2.07,2.07c-8.88.4-47.09,9.17-38.88,32.36,0,.07,3.24,7.66,6.62,3.51,1.57-1.93,2.22-2.71,2.35-2.59s-.2-.51-.29,2.51c-.2,6.45,13,20.18,32.19,7.23,23.89-16.12,25.37-11.74,25.89-11.66,0,0,27,17.6,37.78,7.63,10.49-9.74-2.26-27.9-24.13-35.71a2.17,2.17,0,0,1-1.46-2.19l3.64-55.2a2.17,2.17,0,0,0-2.2-2.31c-7.12.13-28.42.49-35.16.51A2.16,2.16,0,0,0,192.91,590.09Z"/><path class="cls-3" d="M192.07,614.14s15.52,6.34,38.68,0"/><path class="cls-3" d="M191.69,623.16s15.45,6.32,38.6,0"/><path class="cls-3" d="M191.31,632.64s15.22,6.23,38.37-.1"/><path class="cls-4" d="M158.79,677.26s10.78-30.23,42.15-24.73"/><path class="cls-3" d="M237,650.1s-.88,21.13-13.08,29.29"/><path class="cls-3" d="M244.54,654.58s.36,20.4-11.84,28.57"/><path class="cls-3" d="M188.14,644.08s3.78,2,3.47,7.86c0,0,15.71,5,17,24.28"/><path class="cls-3" d="M178.53,645.7a7.63,7.63,0,0,1,5.34,7.59s16.25,7.53,17.57,26.77"/><path class="cls-3" d="M162.39,651.8a16,16,0,0,1,9.7,7.48s20.27,3.67,18.62,27.56"/><path class="cls-3" d="M153.87,657.94s8,1.47,11.37,8.2c0,0,16.22,1.74,18.41,24.64"/><path class="cls-2" d="M394.38,590.09l2.13,51.76a2.17,2.17,0,0,0,2.08,2.07c8.87.4,47.08,9.17,38.87,32.36,0,.07-3.24,7.66-6.62,3.51-1.57-1.93-2.22-2.71-2.34-2.59s.19-.51.28,2.51c.21,6.45-13,20.18-32.19,7.23-23.89-16.12-25.37-11.74-25.88-11.66,0,0-27,17.6-37.78,7.63-10.49-9.74,2.25-27.9,24.12-35.71a2.17,2.17,0,0,0,1.46-2.19l-3.63-55.2a2.16,2.16,0,0,1,2.19-2.31c7.13.13,28.42.49,35.16.51A2.16,2.16,0,0,1,394.38,590.09Z"/><path class="cls-3" d="M395.22,614.14s-15.52,6.34-38.68,0"/><path class="cls-3" d="M395.6,623.16s-15.44,6.32-38.6,0"/><path class="cls-3" d="M396,632.64s-15.22,6.23-38.37-.1"/><path class="cls-4" d="M428.5,677.26S417.72,647,386.36,652.53"/><path class="cls-3" d="M350.3,650.1s.89,21.13,13.09,29.29"/><path class="cls-3" d="M342.75,654.58s-.36,20.4,11.84,28.57"/><path class="cls-3" d="M399.16,644.08s-3.79,2-3.47,7.86c0,0-15.72,5-17,24.28"/><path class="cls-3" d="M408.76,645.7a7.63,7.63,0,0,0-5.33,7.59s-16.26,7.53-17.57,26.77"/><path class="cls-3" d="M424.9,651.8a16.07,16.07,0,0,0-9.7,7.48s-20.27,3.67-18.62,27.56"/><path class="cls-3" d="M433.42,657.94s-8,1.47-11.37,8.2c0,0-16.22,1.74-18.4,24.64"/><path class="cls-1" d="M277.36,543.09c0-22.22-26.31-40.19-58.26-40.19s-57.86,18-57.86,40.23a28.8,28.8,0,0,0,.19,3.09c4.88,89.59,40.63,48.17,40.63,48.17,14.09,29.13,29.73,2,29.73,2,19.7,26.09,35.21-15.9,41.89-39.24A29.31,29.31,0,0,0,277.36,543.09Z"/><path class="cls-1" d="M309.26,543.09c0-22.22,26.31-40.19,58.26-40.19s57.86,18,57.86,40.23a28.8,28.8,0,0,1-.19,3.09c-4.88,89.59-40.63,48.17-40.63,48.17-14.09,29.13-29.73,2-29.73,2-19.7,26.09-35.21-15.9-41.89-39.24A29.31,29.31,0,0,1,309.26,543.09Z"/><path class="cls-1" d="M90.87,53.89H498.43s225.71,481.9-204.21,523.32C294.22,577.21-104.61,584.46,90.87,53.89Z"/><path class="cls-1" d="M90.87,53.89H498.43S561,177.12,557.7,286.07c0,0-241.41,137.55-521.77-.36C35.93,285.71,35.82,189.64,90.87,53.89Z"/><path class="cls-1" d="M556.59,286.13c-5.52,3.11-242.65,135.37-519.07.35-14.4,295.64,256.7,290.73,256.7,290.73C517.79,559.09,563.27,415.27,556.59,286.13Z"/><path class="cls-5" d="M8,454.19a221.75,221.75,0,0,1-4.5-33.13c0-66.29,14.2-116.79,50-116.79s68.83,60,68.83,126.27c0,8.09-.26,16-.77,23.65Z"/><line class="cls-2" x1="5.11" y1="438.27" x2="123.73" y2="438.27"/><path class="cls-5" d="M579.45,454.19a221.75,221.75,0,0,0,4.5-33.13c0-66.29-14.2-116.79-50-116.79s-68.83,60-68.83,126.27c0,8.09.26,16,.77,23.65Z"/><line class="cls-2" x1="463.22" y1="438.27" x2="581.84" y2="438.27"/><path class="cls-5" d="M37.52,286.48s246.39,136.14,519.07,0c0,0,11.89,114.22-47.77,190.49,0,0-232.58,69-421.54,3C87.28,480,29,410.8,37.52,286.48Z"/><path class="cls-6" d="M26.17,3.5h536L528.91,84.33s-160-78.28-234.77,73.82c0,0-54.7-149.74-233.55-73Z"/><polygon class="cls-7" points="295.7 291.91 263.05 241.36 295.7 194.22 329.2 241.36 295.7 291.91"/><path class="cls-6" d="M26.17,3.5h536L528.91,84.33s-160-78.28-234.77,73.82c0,0-54.7-149.74-233.55-73Z"/><polygon class="cls-7" points="295.7 293.91 263.05 243.36 295.7 196.22 329.2 243.36 295.7 293.91"/><path class="cls-8" d="M147,116.76s38.67-49.12,74.89,4.07C221.85,120.83,189.06,93.32,147,116.76Z"/><path class="cls-8" d="M444.74,117.76S405.23,69.51,369,122.7C369,122.7,402.64,94.32,444.74,117.76Z"/><path d="M118.37,201.58s26.73-58.14,71-48.49c18.16,3.95,32.66,15.27,48.11,61.22,0,0-3-71.15-55-75.13C163.24,137.7,134.75,151.61,118.37,201.58Z"/><path d="M475.26,202.58s-26.73-58.14-71-48.49c-18.16,3.95-32.67,15.27-48.11,61.22,0,0,3-71.15,55-75.13C430.39,138.7,458.88,152.61,475.26,202.58Z"/><polyline class="cls-9" points="38.01 322.64 249.08 383.02 292.2 347"/><polyline class="cls-9" points="553.46 322.64 342.39 383.02 299.26 347"/><line class="cls-10" x1="296.12" y1="346.26" x2="296.12" y2="503.79"/><circle class="cls-10" cx="312.57" cy="381.09" r="4.94"/><circle class="cls-10" cx="312.57" cy="431.05" r="4.94"/><circle class="cls-10" cx="312.57" cy="480.07" r="4.94"/></g></g></svg>