<svg xmlns="http://www.w3.org/2000/svg" viewBox="0 0 854.85 694.81"><defs><style>.cls-1,.cls-18{fill:#c3c4c9;}.cls-1,.cls-10,.cls-11,.cls-14,.cls-16,.cls-17,.cls-18,.cls-19,.cls-2,.cls-3,.cls-4,.cls-5,.cls-6,.cls-7,.cls-8{stroke:#000;}.cls-1,.cls-13,.cls-14,.cls-15,.cls-16,.cls-17,.cls-18,.cls-19,.cls-2,.cls-7,.cls-8{stroke-miterlimit:10;}.cls-1,.cls-11,.cls-2,.cls-6,.cls-7{stroke-width:7px;}.cls-11,.cls-3{fill:#e86a1f;}.cls-10,.cls-11,.cls-3,.cls-4,.cls-5,.cls-6{stroke-linecap:round;stroke-linejoin:round;}.cls-3,.cls-5{stroke-width:5px;}.cls-19,.cls-4,.cls-5{fill:none;}.cls-14,.cls-18,.cls-19,.cls-4{stroke-width:3px;}.cls-6{fill:#28bfd4;}.cls-7,.cls-9{fill:#fff;}.cls-12{fill:red;}.cls-13,.cls-15,.cls-17{fill:#8cc63f;}.cls-13{stroke:lime;}.cls-13,.cls-17{stroke-width:0.4px;}.cls-14{fill:#929398;}.cls-15{stroke:#8cc63f;}.cls-15,.cls-16{stroke-width:0.4px;}</style></defs><title>owl7_1</title><g id="Capa_2" data-name="Capa 2"><g id="owl7"><path class="cls-1" d="M153.18,270.43c-41.11-29.53-120-57.3-142.37-29.37s9,74.79,60.74,116.21,119.23,53.09,141.59,25.15S204.94,311.85,153.18,270.43Z"/><path class="cls-2" d="M127.77,252.83A222.53,222.53,0,0,1,156.45,270c51.75,41.42,82.3,84.06,60,112s-89.83,16.27-141.59-25.15q-9.48-7.59-18-15.38Z"/><path class="cls-1" d="M701.66,282.7c41.12-29.53,120-57.31,142.37-29.37s-9,74.79-60.73,116.2-119.23,53.09-141.59,25.16S649.91,324.12,701.66,282.7Z"/><path class="cls-2" d="M727.08,265.1a220.73,220.73,0,0,0-28.68,17.19c-51.75,41.42-82.3,84.06-59.95,112S728.28,410.54,780,369.13q9.48-7.59,18-15.38Z"/><path class="cls-3" d="M326.63,590.09l-2.13,51.76a2.16,2.16,0,0,1-2.07,2.07c-8.87.4-47.08,9.17-38.88,32.36,0,.07,3.24,7.66,6.62,3.51,1.57-1.93,2.23-2.71,2.35-2.59s-.2-.51-.29,2.51c-.2,6.45,13,20.18,32.19,7.23,23.9-16.12,25.38-11.74,25.89-11.66,0,0,27,17.6,37.78,7.63,10.49-9.74-2.26-27.9-24.13-35.71A2.18,2.18,0,0,1,362.5,645l3.64-55.2a2.17,2.17,0,0,0-2.2-2.31c-7.12.13-28.42.49-35.16.51A2.16,2.16,0,0,0,326.63,590.09Z"/><path class="cls-4" d="M325.79,614.14s15.53,6.34,38.68,0"/><path class="cls-4" d="M325.41,623.16s15.45,6.32,38.6,0"/><path class="cls-4" d="M325,632.64s15.21,6.23,38.36-.1"/><path class="cls-5" d="M292.51,677.26s10.78-30.23,42.15-24.73"/><path class="cls-4" d="M370.71,650.1s-.88,21.13-13.08,29.29"/><path class="cls-4" d="M378.27,654.58s.35,20.4-11.85,28.57"/><path class="cls-4" d="M321.86,644.08s3.79,2,3.47,7.86c0,0,15.71,5,17,24.28"/><path class="cls-4" d="M312.26,645.7a7.63,7.63,0,0,1,5.33,7.59s16.25,7.53,17.57,26.77"/><path class="cls-4" d="M296.11,651.8a16.08,16.08,0,0,1,9.71,7.48s20.26,3.67,18.61,27.56"/><path class="cls-4" d="M287.59,657.94s8,1.47,11.37,8.2c0,0,16.23,1.74,18.41,24.64"/><path class="cls-3" d="M528.1,590.09l2.13,51.76a2.17,2.17,0,0,0,2.08,2.07c8.87.4,47.08,9.17,38.87,32.36,0,.07-3.23,7.66-6.61,3.51-1.58-1.93-2.23-2.71-2.35-2.59s.19-.51.29,2.51c.2,6.45-13,20.18-32.19,7.23-23.9-16.12-25.38-11.74-25.89-11.66,0,0-27,17.6-37.78,7.63-10.49-9.74,2.26-27.9,24.12-35.71a2.18,2.18,0,0,0,1.47-2.19l-3.64-55.2a2.16,2.16,0,0,1,2.19-2.31c7.13.13,28.42.49,35.16.51A2.16,2.16,0,0,1,528.1,590.09Z"/><path class="cls-4" d="M528.94,614.14s-15.52,6.34-38.67,0"/><path class="cls-4" d="M529.32,623.16s-15.44,6.32-38.6,0"/><path class="cls-4" d="M529.7,632.64s-15.21,6.23-38.37-.1"/><path class="cls-5" d="M562.23,677.26S551.44,647,520.08,652.53"/><path class="cls-4" d="M484,650.1s.88,21.13,13.08,29.29"/><path class="cls-4" d="M476.47,654.58s-.35,20.4,11.85,28.57"/><path class="cls-4" d="M532.88,644.08s-3.79,2-3.47,7.86c0,0-15.71,5-17,24.28"/><path class="cls-4" d="M542.48,645.7a7.63,7.63,0,0,0-5.33,7.59s-16.26,7.53-17.57,26.77"/><path class="cls-4" d="M558.62,651.8a16.07,16.07,0,0,0-9.7,7.48S528.65,663,530.3,686.84"/><path class="cls-4" d="M567.15,657.94s-8,1.47-11.38,8.2c0,0-16.22,1.74-18.4,24.64"/><path class="cls-1" d="M411.08,543.09c0-22.22-26.31-40.19-58.26-40.19S295,520.91,295,543.13a28.8,28.8,0,0,0,.19,3.09c4.88,89.59,40.64,48.17,40.64,48.17,14.08,29.13,29.72,2,29.72,2,19.7,26.09,35.21-15.9,41.89-39.24A29.31,29.31,0,0,0,411.08,543.09Z"/><path class="cls-1" d="M443,543.09c0-22.22,26.3-40.19,58.25-40.19s57.86,18,57.86,40.23a26.42,26.42,0,0,1-.19,3.09c-4.87,89.59-40.63,48.17-40.63,48.17-14.09,29.13-29.72,2-29.72,2-19.71,26.09-35.22-15.9-41.9-39.24A29.3,29.3,0,0,1,443,543.09Z"/><path class="cls-1" d="M224.59,53.89H632.15s225.71,481.9-204.21,523.32C427.94,577.21,29.12,584.46,224.59,53.89Z"/><path class="cls-2" d="M171.24,286.48s246.39,136.14,519.07,0c0,0,11.89,114.22-47.77,190.49,0,0-232.58,69-421.54,3C221,480,162.71,410.8,171.24,286.48Z"/><path class="cls-6" d="M159.89,3.5h536L662.63,84.33s-160-78.28-234.76,73.82c0,0-54.7-149.74-233.56-73Z"/><ellipse class="cls-7" cx="308.71" cy="180.24" rx="75.21" ry="69.17"/><ellipse class="cls-8" cx="317.06" cy="178.33" rx="33.7" ry="30.81"/><ellipse class="cls-9" cx="302.34" cy="170.13" rx="7.99" ry="6.88"/><ellipse class="cls-9" cx="301.28" cy="185.12" rx="2.51" ry="2.34"/><ellipse class="cls-7" cx="554.36" cy="180.24" rx="75.21" ry="69.17"/><ellipse class="cls-8" cx="546.02" cy="178.33" rx="33.7" ry="30.81"/><ellipse class="cls-9" cx="560.74" cy="170.13" rx="7.99" ry="6.88"/><ellipse class="cls-9" cx="561.8" cy="185.12" rx="2.51" ry="2.34"/><path class="cls-8" d="M273.29,108.83s40.09-48,77.64,4C350.93,112.81,316.94,85.92,273.29,108.83Z"/><path class="cls-8" d="M589.23,108.83s-41-47.17-78.51,4.83C510.72,113.66,545.58,85.92,589.23,108.83Z"/><path class="cls-10" d="M431.07,193l-37.15,49.43s1.64,40.79,37.15,53.28l.86-.39c35.51-12.49,36.28-53.28,36.28-53.28Z"/><polygon class="cls-11" points="431.06 193.04 468.21 242.08 431.06 257.13 393.92 242.47 431.06 193.04"/><path class="cls-12" d="M431.07,265.9c-14.31,0-25.21,10.77-25.21,10.77a52.83,52.83,0,0,0,25.21,19.08,52.83,52.83,0,0,0,25.2-19.08S445.37,265.9,431.07,265.9Z"/><path class="cls-11" d="M393.92,242.47s2.65,42.26,37.15,53.28c0,0,33.19-8,37.14-53.67,0,0-18.57,37.2-37.14,38.75C413,282.33,395,248.28,393.92,242.47Z"/><path class="cls-13" d="M513.12,561.15a284.72,284.72,0,0,0,57-22.88q-1.7.84-3.63,1.71A348.46,348.46,0,0,1,513.12,561.15Z"/><path class="cls-14" d="M641.82,477.18c-14.24,4.1-238,66.69-420.82,2.79,0,0,24.67,39.21,81.6,67.59a263.66,263.66,0,0,1-23.16-13.42s56.41,32.85,72.3.3c25.49,32.17,42.41,0,42.41,0s16.7,30.7,36.16,0c22.88,29.54,36.88,0,36.88,0s17.84,31.67,40.89,0c18.53,18.54,43.44,12.11,58.39,5.51,5.61-2.82,9.53-5,11.48-6.14A219.51,219.51,0,0,0,641.82,477.18Z"/><path class="cls-15" d="M402.74,575c-40.74-3.56-73.87-14.34-100.14-27.43A253.11,253.11,0,0,0,402.74,575Z"/><path class="cls-15" d="M513.12,561.15a424.66,424.66,0,0,1-72.65,13.7A327.5,327.5,0,0,0,513.12,561.15Z"/><path class="cls-16" d="M579.39,533s-.49.3-1.44.84q-3.84,2.26-7.85,4.43A81.31,81.31,0,0,0,579.39,533Z"/><path class="cls-17" d="M570.1,538.27q4-2.16,7.85-4.43c-2,1.13-5.87,3.32-11.48,6.14Q568.41,539.11,570.1,538.27Z"/><path class="cls-18" d="M508.08,534.47c-23.05,31.67-40.89,0-40.89,0s-14,29.54-36.88,0c-19.46,30.7-36.16,0-36.16,0s-16.92,32.14-42.41,0c-15.89,32.55-72.3-.3-72.3-.3a263.66,263.66,0,0,0,23.16,13.42C328.87,560.65,362,571.43,402.74,575a282.21,282.21,0,0,0,37.73-.14,424.66,424.66,0,0,0,72.65-13.7A348.46,348.46,0,0,0,566.47,540C551.52,546.58,526.61,553,508.08,534.47Z"/><path class="cls-19" d="M243.53,499.13s31.2,37,61.82,5.77c13.68,20.73,39.24,15.13,45.39,2.54,22.2,27.19,40.34,3.54,40.34,3.54s20.63,27,41.7,1.3c21,24.19,40.28-3.89,40.28-3.89s19.56,25.16,42.67-1.84c9.59,7.95,30.63,16.71,43.65-2.19,34.44,29.61,64-4.07,64-4.07"/></g></g></svg>