<svg xmlns="http://www.w3.org/2000/svg" viewBox="0 0 854.85 694.81"><defs><style>.cls-1{fill:#c3c4c9;}.cls-1,.cls-10,.cls-11,.cls-2,.cls-3,.cls-4,.cls-5,.cls-6,.cls-7,.cls-8{stroke:#000;}.cls-1,.cls-2,.cls-7,.cls-8{stroke-miterlimit:10;}.cls-1,.cls-11,.cls-2,.cls-6,.cls-7{stroke-width:7px;}.cls-11,.cls-3{fill:#e86a1f;}.cls-10,.cls-11,.cls-3,.cls-4,.cls-5,.cls-6{stroke-linecap:round;stroke-linejoin:round;}.cls-3,.cls-5{stroke-width:5px;}.cls-4,.cls-5{fill:none;}.cls-4{stroke-width:3px;}.cls-6{fill:#28bfd4;}.cls-7,.cls-9{fill:#fff;}.cls-12{fill:red;}</style></defs><title>owl7</title><g id="Capa_2" data-name="Capa 2"><g id="owl7"><path class="cls-1" d="M153.18,270.43c-41.11-29.53-120-57.3-142.37-29.37s9,74.79,60.74,116.21,119.23,53.09,141.59,25.15S204.94,311.85,153.18,270.43Z"/><path class="cls-2" d="M127.77,252.83A222.53,222.53,0,0,1,156.45,270c51.75,41.42,82.3,84.06,60,112s-89.83,16.27-141.59-25.15q-9.48-7.59-18-15.38Z"/><path class="cls-1" d="M701.66,282.7c41.12-29.53,120-57.31,142.37-29.37s-9,74.79-60.73,116.2-119.23,53.09-141.59,25.16S649.91,324.12,701.66,282.7Z"/><path class="cls-2" d="M727.08,265.1a220.73,220.73,0,0,0-28.68,17.19c-51.75,41.42-82.3,84.06-59.95,112S728.28,410.54,780,369.13q9.48-7.59,18-15.38Z"/><path class="cls-3" d="M326.63,590.09l-2.13,51.76a2.16,2.16,0,0,1-2.07,2.07c-8.87.4-47.08,9.17-38.88,32.36,0,.07,3.24,7.66,6.62,3.51,1.57-1.93,2.23-2.71,2.35-2.59s-.2-.51-.29,2.51c-.2,6.45,13,20.18,32.19,7.23,23.9-16.12,25.38-11.74,25.89-11.66,0,0,27,17.6,37.78,7.63,10.49-9.74-2.26-27.9-24.13-35.71A2.18,2.18,0,0,1,362.5,645l3.64-55.2a2.17,2.17,0,0,0-2.2-2.31c-7.12.13-28.42.49-35.16.51A2.16,2.16,0,0,0,326.63,590.09Z"/><path class="cls-4" d="M325.79,614.14s15.53,6.34,38.68,0"/><path class="cls-4" d="M325.41,623.16s15.45,6.32,38.6,0"/><path class="cls-4" d="M325,632.64s15.21,6.23,38.36-.1"/><path class="cls-5" d="M292.51,677.26s10.78-30.23,42.15-24.73"/><path class="cls-4" d="M370.71,650.1s-.88,21.13-13.08,29.29"/><path class="cls-4" d="M378.27,654.58s.35,20.4-11.85,28.57"/><path class="cls-4" d="M321.86,644.08s3.79,2,3.47,7.86c0,0,15.71,5,17,24.28"/><path class="cls-4" d="M312.26,645.7a7.63,7.63,0,0,1,5.33,7.59s16.25,7.53,17.57,26.77"/><path class="cls-4" d="M296.11,651.8a16.08,16.08,0,0,1,9.71,7.48s20.26,3.67,18.61,27.56"/><path class="cls-4" d="M287.59,657.94s8,1.47,11.37,8.2c0,0,16.23,1.74,18.41,24.64"/><path class="cls-3" d="M528.1,590.09l2.13,51.76a2.17,2.17,0,0,0,2.08,2.07c8.87.4,47.08,9.17,38.87,32.36,0,.07-3.23,7.66-6.61,3.51-1.58-1.93-2.23-2.71-2.35-2.59s.19-.51.29,2.51c.2,6.45-13,20.18-32.19,7.23-23.9-16.12-25.38-11.74-25.89-11.66,0,0-27,17.6-37.78,7.63-10.49-9.74,2.26-27.9,24.12-35.71a2.18,2.18,0,0,0,1.47-2.19l-3.64-55.2a2.16,2.16,0,0,1,2.19-2.31c7.13.13,28.42.49,35.16.51A2.16,2.16,0,0,1,528.1,590.09Z"/><path class="cls-4" d="M528.94,614.14s-15.52,6.34-38.67,0"/><path class="cls-4" d="M529.32,623.16s-15.44,6.32-38.6,0"/><path class="cls-4" d="M529.7,632.64s-15.21,6.23-38.37-.1"/><path class="cls-5" d="M562.23,677.26S551.44,647,520.08,652.53"/><path class="cls-4" d="M484,650.1s.88,21.13,13.08,29.29"/><path class="cls-4" d="M476.47,654.58s-.35,20.4,11.85,28.57"/><path class="cls-4" d="M532.88,644.08s-3.79,2-3.47,7.86c0,0-15.71,5-17,24.28"/><path class="cls-4" d="M542.48,645.7a7.63,7.63,0,0,0-5.33,7.59s-16.26,7.53-17.57,26.77"/><path class="cls-4" d="M558.62,651.8a16.07,16.07,0,0,0-9.7,7.48S528.65,663,530.3,686.84"/><path class="cls-4" d="M567.15,657.94s-8,1.47-11.38,8.2c0,0-16.22,1.74-18.4,24.64"/><path class="cls-1" d="M411.08,543.09c0-22.22-26.31-40.19-58.26-40.19S295,520.91,295,543.13a28.8,28.8,0,0,0,.19,3.09c4.88,89.59,40.64,48.17,40.64,48.17,14.08,29.13,29.72,2,29.72,2,19.7,26.09,35.21-15.9,41.89-39.24A29.31,29.31,0,0,0,411.08,543.09Z"/><path class="cls-1" d="M443,543.09c0-22.22,26.3-40.19,58.25-40.19s57.86,18,57.86,40.23a26.42,26.42,0,0,1-.19,3.09c-4.87,89.59-40.63,48.17-40.63,48.17-14.09,29.13-29.72,2-29.72,2-19.71,26.09-35.22-15.9-41.9-39.24A29.3,29.3,0,0,1,443,543.09Z"/><path class="cls-1" d="M224.59,53.89H632.15s225.71,481.9-204.21,523.32C427.94,577.21,29.12,584.46,224.59,53.89Z"/><path class="cls-1" d="M224.59,53.89H632.15s62.59,123.23,59.27,232.18c0,0-241.41,137.55-521.77-.36C169.65,285.71,169.54,189.64,224.59,53.89Z"/><path class="cls-1" d="M690.31,286.13c-5.52,3.11-242.65,135.37-519.07.35-14.4,295.64,256.7,290.73,256.7,290.73C651.51,559.09,697,415.27,690.31,286.13Z"/><path class="cls-2" d="M171.24,286.48s246.39,136.14,519.07,0c0,0,11.89,114.22-47.77,190.49,0,0-232.58,69-421.54,3C221,480,162.71,410.8,171.24,286.48Z"/><path class="cls-6" d="M159.89,3.5h536L662.63,84.33s-160-78.28-234.76,73.82c0,0-54.7-149.74-233.56-73Z"/><ellipse class="cls-7" cx="308.71" cy="180.24" rx="75.21" ry="69.17"/><ellipse class="cls-8" cx="317.06" cy="178.33" rx="33.7" ry="30.81"/><ellipse class="cls-9" cx="302.34" cy="170.13" rx="7.99" ry="6.88"/><ellipse class="cls-9" cx="301.28" cy="185.12" rx="2.51" ry="2.34"/><ellipse class="cls-7" cx="554.36" cy="180.24" rx="75.21" ry="69.17"/><ellipse class="cls-8" cx="546.02" cy="178.33" rx="33.7" ry="30.81"/><ellipse class="cls-9" cx="560.74" cy="170.13" rx="7.99" ry="6.88"/><ellipse class="cls-9" cx="561.8" cy="185.12" rx="2.51" ry="2.34"/><path class="cls-8" d="M273.29,108.83s40.09-48,77.64,4C350.93,112.81,316.94,85.92,273.29,108.83Z"/><path class="cls-8" d="M589.23,108.83s-41-47.17-78.51,4.83C510.72,113.66,545.58,85.92,589.23,108.83Z"/><path class="cls-10" d="M431.07,193l-37.15,49.43s1.64,40.79,37.15,53.28l.86-.39c35.51-12.49,36.28-53.28,36.28-53.28Z"/><polygon class="cls-11" points="431.06 193.04 468.21 242.08 431.06 257.13 393.92 242.47 431.06 193.04"/><path class="cls-12" d="M431.07,265.9c-14.31,0-25.21,10.77-25.21,10.77a52.83,52.83,0,0,0,25.21,19.08,52.83,52.83,0,0,0,25.2-19.08S445.37,265.9,431.07,265.9Z"/><path class="cls-11" d="M393.92,242.47s2.65,42.26,37.15,53.28c0,0,33.19-8,37.14-53.67,0,0-18.57,37.2-37.14,38.75C413,282.33,395,248.28,393.92,242.47Z"/></g></g></svg>