<svg xmlns="http://www.w3.org/2000/svg" viewBox="0 0 762.41 780.22"><defs><style>.cls-1,.cls-13{fill:#c3c4c9;}.cls-1,.cls-10,.cls-12,.cls-13,.cls-14,.cls-2,.cls-3,.cls-4,.cls-5,.cls-6,.cls-7,.cls-8,.cls-9{stroke:#000;}.cls-1,.cls-12,.cls-13,.cls-14,.cls-2,.cls-7,.cls-9{stroke-miterlimit:10;}.cls-1,.cls-2{stroke-width:7px;}.cls-3,.cls-6{fill:#e86a1f;}.cls-10,.cls-3,.cls-4,.cls-5,.cls-6,.cls-8{stroke-linecap:round;stroke-linejoin:round;}.cls-3,.cls-5{stroke-width:5px;}.cls-10,.cls-11,.cls-14,.cls-4,.cls-5,.cls-9{fill:none;}.cls-13,.cls-4{stroke-width:3px;}.cls-6{stroke-width:6.07px;}.cls-7{stroke-width:0.87px;}.cls-8{fill:#28bfd4;stroke-width:3.05px;}.cls-10,.cls-9{stroke-width:2px;}.cls-12{fill:#fff;stroke-width:4px;}.cls-14{stroke-width:1.5px;}</style></defs><title>owl9</title><g id="Capa_2" data-name="Capa 2"><g id="owl9"><path class="cls-1" d="M5.86,487.42C3.12,538,22.2,619.41,57.78,623.2S116,575.37,123,509.45s-19.47-129.06-55-132.85S12.89,421.51,5.86,487.42Z"/><path class="cls-2" d="M4.72,518.32a221.46,221.46,0,0,1-1-33.42c7-65.92,26.51-114.62,62.08-110.83S127.92,441,120.89,506.92c-.86,8.05-2,15.89-3.27,23.44Z"/><path class="cls-1" d="M579.21,374.88c42.48-27.52,110-62.38,137.12-20.35,26,40.22-6.07,72.12-59.75,111s-121.65,47.3-142.64,18.32S525.52,413.77,579.21,374.88Z"/><path class="cls-2" d="M605.44,358.52A222.38,222.38,0,0,0,576,374.31c-53.69,38.89-86.25,80-65.26,109S599.65,503.86,653.34,465q9.84-7.12,18.7-14.49Z"/><path class="cls-3" d="M226.39,675.5l-2.13,51.76a2.17,2.17,0,0,1-2.07,2.08c-8.88.39-47.09,9.17-38.88,32.36,0,.07,3.24,7.65,6.62,3.51,1.57-1.93,2.22-2.71,2.34-2.59s-.19-.51-.28,2.5c-.2,6.46,13,20.19,32.19,7.23,23.89-16.12,25.37-11.73,25.89-11.65,0,0,27,17.6,37.77,7.63,10.49-9.74-2.25-27.9-24.12-35.71a2.18,2.18,0,0,1-1.46-2.2l3.64-55.19a2.17,2.17,0,0,0-2.2-2.31c-7.12.12-28.42.48-35.16.51A2.16,2.16,0,0,0,226.39,675.5Z"/><path class="cls-4" d="M225.55,699.56s15.52,6.33,38.68,0"/><path class="cls-4" d="M225.17,708.57s15.45,6.32,38.6,0"/><path class="cls-4" d="M224.79,718.05s15.22,6.23,38.37-.1"/><path class="cls-5" d="M192.27,762.68s10.78-30.24,42.15-24.73"/><path class="cls-4" d="M270.47,735.52s-.88,21.12-13.08,29.29"/><path class="cls-4" d="M278,740s.36,20.4-11.84,28.56"/><path class="cls-4" d="M221.62,729.5s3.78,2,3.47,7.86c0,0,15.71,5,17,24.28"/><path class="cls-4" d="M212,731.11a7.65,7.65,0,0,1,5.34,7.6s16.25,7.52,17.57,26.77"/><path class="cls-4" d="M195.87,737.22a16,16,0,0,1,9.7,7.48s20.27,3.67,18.62,27.55"/><path class="cls-4" d="M187.35,743.36s8,1.46,11.37,8.19c0,0,16.22,1.75,18.4,24.64"/><path class="cls-3" d="M427.86,675.5,430,727.26a2.17,2.17,0,0,0,2.07,2.08c8.88.39,47.09,9.17,38.88,32.36,0,.07-3.24,7.65-6.62,3.51-1.57-1.93-2.22-2.71-2.34-2.59s.19-.51.28,2.5c.21,6.46-13,20.19-32.19,7.23-23.89-16.12-25.37-11.73-25.88-11.65,0,0-27,17.6-37.78,7.63-10.49-9.74,2.25-27.9,24.12-35.71a2.18,2.18,0,0,0,1.46-2.2l-3.63-55.19a2.15,2.15,0,0,1,2.19-2.31c7.12.12,28.42.48,35.16.51A2.16,2.16,0,0,1,427.86,675.5Z"/><path class="cls-4" d="M428.7,699.56s-15.52,6.33-38.68,0"/><path class="cls-4" d="M429.08,708.57s-15.44,6.32-38.6,0"/><path class="cls-4" d="M429.46,718.05s-15.22,6.23-38.37-.1"/><path class="cls-5" d="M462,762.68S451.2,732.44,419.84,738"/><path class="cls-4" d="M383.78,735.52s.89,21.12,13.09,29.29"/><path class="cls-4" d="M376.23,740s-.36,20.4,11.84,28.56"/><path class="cls-4" d="M432.64,729.5s-3.79,2-3.47,7.86c0,0-15.72,5-17,24.28"/><path class="cls-4" d="M442.24,731.11a7.63,7.63,0,0,0-5.33,7.6s-16.26,7.52-17.57,26.77"/><path class="cls-4" d="M458.38,737.22a16,16,0,0,0-9.7,7.48s-20.27,3.67-18.62,27.55"/><path class="cls-4" d="M466.9,743.36s-8,1.46-11.37,8.19c0,0-16.22,1.75-18.4,24.64"/><path class="cls-1" d="M310.84,628.51c0-22.22-26.31-40.2-58.26-40.2s-57.86,18-57.86,40.24a28.8,28.8,0,0,0,.19,3.09c4.88,89.58,40.63,48.17,40.63,48.17,14.09,29.12,29.73,2,29.73,2,19.7,26.1,35.21-15.89,41.89-39.23A29.34,29.34,0,0,0,310.84,628.51Z"/><path class="cls-1" d="M342.74,628.51c0-22.22,26.31-40.2,58.26-40.2s57.86,18,57.86,40.24a28.8,28.8,0,0,1-.19,3.09C453.79,721.22,418,679.81,418,679.81c-14.08,29.12-29.72,2-29.72,2-19.7,26.1-35.21-15.89-41.89-39.23A29.34,29.34,0,0,1,342.74,628.51Z"/><path class="cls-1" d="M124.35,139.31H531.91S757.62,621.21,327.7,662.62C327.7,662.62-71.13,669.88,124.35,139.31Z"/><path d="M590.07,371.89A567.54,567.54,0,0,1,386.92,430l-111.51-.54C153.3,417.37,71,371.89,71,371.89c-4.14,60.4,7.49,107.78,20.54,140.54L69,706.43H591L576.28,496.37C596.48,433.46,590.07,371.89,590.07,371.89Z"/><polygon class="cls-6" points="328.82 377.31 296.28 326.42 328.82 278.96 362.2 326.42 328.82 377.31"/><polygon class="cls-6" points="328.82 377.31 296.28 326.42 328.82 278.96 362.2 326.42 328.82 377.31"/><path class="cls-7" d="M175.6,188.9s38.54-49.44,74.64,4.1C250.24,193,217.57,165.3,175.6,188.9Z"/><path d="M479.35,188.9s-39.38-48.57-75.48,5C403.87,193.87,437.39,165.3,479.35,188.9Z"/><path d="M151.1,284.36s26.64-58.53,70.8-48.82c18.09,4,32.55,15.38,47.94,61.64,0,0-3-71.63-54.85-75.64C195.81,220.06,167.42,234.06,151.1,284.36Z"/><path d="M504.77,284.36S478.13,225.83,434,235.54c-18.1,4-32.55,15.38-48,61.64,0,0,3-71.63,54.85-75.64C460.06,220.06,488.45,234.06,504.77,284.36Z"/><rect class="cls-8" x="625.27" y="73.75" width="6.89" height="110.54"/><path d="M693.86,67,330.12,0,6.22,66.44,118.83,89.11v70.6c158.93-54,208.44,82.94,208.44,82.94,59.19-121.65,172-96.91,215.87-81.6V93.67Z"/><path class="cls-8" d="M645.24,251,642,197.4c0-.27,0-.53,0-.79a13,13,0,0,0-26,0c0,.12,0,.25,0,.37l-2.7,54Z"/><line class="cls-9" x1="620.17" y1="186.98" x2="620.17" y2="249.82"/><line class="cls-9" x1="620.49" y1="186.66" x2="620.49" y2="249.5"/><line class="cls-9" x1="620.28" y1="186.45" x2="620.28" y2="249.29"/><line class="cls-9" x1="620.28" y1="186.23" x2="620.39" y2="250.94"/><line class="cls-9" x1="626.22" y1="183.91" x2="626.22" y2="251.12"/><line class="cls-9" x1="632.16" y1="184.68" x2="632.16" y2="251.25"/><line class="cls-9" x1="638.16" y1="187.59" x2="638.11" y2="251.2"/><line class="cls-10" x1="615.72" y1="203.55" x2="642.31" y2="203.55"/><path class="cls-11" d="M721.14,363.47c3.76,8.15,7.24,22.68.31,36.6-4.83,9.71-41-15.95-41.51-27.24-.17-3.61,2.42-38.6,12.82-35.89C700.67,339,711.44,342.46,721.14,363.47Z"/><path class="cls-12" d="M760.16,460c-11.8,29.81-39.93,28.47-52.72,22.09-9.62-44.05-48.64-134.59-89-178,4.12-14.76,25.3-30.55,57.4-21.5C680.47,321.84,739.65,430.05,760.16,460Z"/><path class="cls-13" d="M721.28,363.47C724.76,371,728,384,723,397a5.74,5.74,0,0,1-5.24,3.66c-13,.19-30.17-14.95-34.64-25.81-6.1-14.8-.58-40.6,9.82-37.89C700.81,339,711.58,342.46,721.28,363.47Z"/><path class="cls-9" d="M676,281.67c-4.26-4.26-31.17-1.64-39,2.91-15.11,8.78-18.54,17.27-17.81,19.72,1.71,5.78,24,1.82,42.62-8.27C677.2,287.7,677,282.62,676,281.67Z"/><path class="cls-14" d="M667,292.54c2-6.53-14-9.22-22.66-6.65-6.3,1.87-14.09,5.77-15.15,11.11-.9,4.49,2.28,6.23,10.3,4.78,6.42-1.16,17.41-8,16.5-11.34s-5.81-2.52-11.65-.35c-4.74,1.76-7.21,3.46-7.85,5.59-.51,1.71,1.73,2.62,5,2,2.63-.48,8.1-4.48,8.51-5.85"/></g></g></svg>